<svg xmlns="http://www.w3.org/2000/svg" width="1024" height="1024" viewBox="0 0 1024 1024" version="1.1">
	<path d="M 202 129.181 C 184.077 131.388, 167.099 139.901, 153.500 153.500 C 139.454 167.546, 131.390 184.054, 129.076 203.500 C 127.698 215.084, 127.596 805.219, 128.969 821.819 C 132.079 859.420, 147.756 882.709, 177 893.174 L 183.500 895.500 510.998 895.760 C 789.660 895.982, 839.718 895.810, 846.694 894.606 C 865.079 891.433, 879.763 880.507, 887.828 864 C 896.217 846.827, 895.457 866.802, 895.795 654.500 C 895.999 526.686, 895.755 462.517, 895.043 456.285 C 892.783 436.518, 886.205 422.213, 873.558 409.561 C 864.101 400.100, 854.327 394.199, 840.158 389.394 C 826.948 384.914, 818.691 384, 791.428 384 L 768 384 767.997 298.250 C 767.995 243.594, 767.606 209.236, 766.924 203.500 C 764.610 184.054, 756.546 167.546, 742.500 153.500 C 728.454 139.454, 711.946 131.390, 692.500 129.076 C 681.060 127.715, 213.094 127.816, 202 129.181" stroke="none" fill="black" fill-rule="evenodd"/>
</svg>